<?xml version="1.0" encoding="iso-8859-1"?>
<!-- Generator: Adobe Illustrator 19.0.0, SVG Export Plug-In . SVG Version: 6.00 Build 0)  -->
<svg version="1.1" id="Layer_1" xmlns="http://www.w3.org/2000/svg" xmlns:xlink="http://www.w3.org/1999/xlink" x="0px" y="0px"
	 viewBox="0 0 512 512" style="enable-background:new 0 0 512 512;" xml:space="preserve">
<polygon style="fill:#C9E3F7;" points="211.478,144.696 0,278.261 0,356.174 222.609,278.261 "/>
<g>
	<polygon style="fill:#78B9EB;" points="300.522,144.696 512,278.261 512,356.174 289.391,278.261 	"/>
	<path style="fill:#78B9EB;" d="M292.263,393.023l19.389-337.371C311.652,24.917,286.736,0,256,0s-55.652,24.917-55.652,55.652
		l19.389,337.371l-52.781,63.558V512L256,456.348L345.043,512v-55.418L292.263,393.023z"/>
</g>
<path style="fill:#3C5D76;" d="M292.263,393.023l19.389-337.371C311.652,24.917,286.736,0,256,0v456.348L345.043,512v-55.418
	L292.263,393.023z"/>
<g>
</g>
<g>
</g>
<g>
</g>
<g>
</g>
<g>
</g>
<g>
</g>
<g>
</g>
<g>
</g>
<g>
</g>
<g>
</g>
<g>
</g>
<g>
</g>
<g>
</g>
<g>
</g>
<g>
</g>
</svg>
